<svg xmlns="http://www.w3.org/2000/svg" xmlns:xlink="http://www.w3.org/1999/xlink" width="388.667" height="445.128" viewBox="0 0 388.667 445.128">
  <defs>
    <linearGradient id="linear-gradient" x1="0.5" x2="0.5" y2="1" gradientUnits="objectBoundingBox">
      <stop offset="0" stop-color="#fff"/>
      <stop offset="1" stop-color="#86bde1"/>
    </linearGradient>
  </defs>
  <path id="logo" d="M-1826.871,1546.8l-.357-.236a118.211,118.211,0,0,1-13.7,7.267,124.47,124.47,0,0,1-17.989,6.45,140.206,140.206,0,0,1-19.511,3.87,166.634,166.634,0,0,1-21.034,1.29q-8.653,0-16.851-.512t-15.937-1.539q-7.741-1.026-15.025-2.564t-14.11-3.59q-6.827-2.051-13.678-4.535t-13.726-5.4q-6.874-2.917-13.774-6.267t-13.822-7.131V1364.16h68.237a113.505,113.505,0,0,1-27.506-23.4q-43.012-50.91-43.013-126.782v-91.666H-1630v85.461q0,52.461-15.654,92.795-15.615,40.233-58.03,65.59h68.734V1535.9a287.375,287.375,0,0,1-55,23.333q-27.306,8.205-61.923,8.205Q-1795.462,1567.442-1826.871,1546.8Zm78.59-20.641a129.764,129.764,0,0,0,63.333-16.154V1406.672h-65.385l-3.149-21.634q-2.834.625-5.743,1.19-.126,12.788-1.037,24.694-1.058,13.815-3.173,26.443a236.074,236.074,0,0,1-5.288,24.07,190.139,190.139,0,0,1-7.4,21.7,167.1,167.1,0,0,1-9.366,19.239,141.607,141.607,0,0,1-7.869,12.279Q-1774.746,1526.16-1748.281,1526.16Zm-218.1-18.154a133.857,133.857,0,0,0,15.016,7.067,128.222,128.222,0,0,0,15.561,5.048,128.74,128.74,0,0,0,16.105,3.029,135.96,135.96,0,0,0,16.651,1.01,101.637,101.637,0,0,0,21.25-2.115,76.706,76.706,0,0,0,18.365-6.346q1.779-.889,3.493-1.872a158.079,158.079,0,0,1-15.263-28.693q-16.759-40.627-16.921-99.866-2.97-.62-5.86-1.3l-3.014,20.706h-65.385Zm140.336-35.985q.227-.578.449-1.163a159.652,159.652,0,0,0,6.971-24.52,257.025,257.025,0,0,0,4.183-29.583q1.032-11.9,1.3-25.18-4.542.1-9.214.1-8.118,0-15.868-.276Q-1837.461,1441.376-1826.049,1472.021Zm3.69-139.58q2.659,0,5.267-.031-1.465-7.985-3.46-15.23a141.811,141.811,0,0,0-4.712-14.24,153.844,153.844,0,0,0-8.577,29.352Q-1828.22,1332.441-1822.359,1332.441Zm31.334-69.443a181.285,181.285,0,0,1,11.178,19.366,172.6,172.6,0,0,1,9.031,21.715,200.155,200.155,0,0,1,6.388,23.564q20.787-4.023,35.71-11.42,32.717-16.217,43.576-40.615a115.439,115.439,0,0,0,5.013-13.5,100.4,100.4,0,0,0-22-12.486q-17.437-7.052-38.718-7.052a88.983,88.983,0,0,0-48.847,13.974q-1.992,1.27-3.914,2.686Q-1792.3,1261.086-1791.024,1263Zm-150.219,37.854q19.173,17.97,55,25.717a183.54,183.54,0,0,1,14.755-42.2,175.831,175.831,0,0,1,15.621-25.715,70.794,70.794,0,0,0-5.775-4.105,89.8,89.8,0,0,0-11.274-6.114,86.673,86.673,0,0,0-11.9-4.368,89.341,89.341,0,0,0-12.524-2.62,97.436,97.436,0,0,0-13.149-.873q-5.32,0-10.4.44t-9.92,1.322a96.891,96.891,0,0,0-9.438,2.2,90.854,90.854,0,0,0-8.959,3.084,92.548,92.548,0,0,0-8.638,4.031q-4.278,2.267-8.477,5.04-1.319.87-2.629,1.791A103.042,103.042,0,0,0-1941.243,1300.852Zm51.4-100.258a140.2,140.2,0,0,1,19.1,3.919,139.4,139.4,0,0,1,18.334,6.53,146.875,146.875,0,0,1,17.564,9.142q5.447,3.313,10.55,7.139,3.811-2.707,7.809-5.139a141.429,141.429,0,0,1,74.872-20.9q33.589,0,57.18,9.743,5.113,2.112,10.154,4.718v-37.59h-300.667v34.525q4-1.982,8.051-3.654a110.941,110.941,0,0,1,12.419-4.263,134.393,134.393,0,0,1,13.67-3.045q7.148-1.218,14.92-1.827t16.169-.608A149.33,149.33,0,0,1-1889.846,1200.594Z" transform="translate(2018.667 -1122.313)" fill="url(#linear-gradient)"/>
</svg>
