<svg xmlns="http://www.w3.org/2000/svg" xmlns:xlink="http://www.w3.org/1999/xlink" viewBox="0 0 50 50" fill="#023235">
  <path d="M25 2C12.316406 2 2 12.316406 2 25C2 37.683594 12.316406 48 25 48C37.683594 48 48 37.683594 48 25C48 12.316406 37.683594 2 25 2 Z M 33.707031 21.707031C33.511719 21.902344 33.257813 22 33 22C32.742188 22 32.488281 21.902344 32.292969 21.707031L26 15.414063L26 37C26 37.554688 25.550781 38 25 38C24.449219 38 24 37.554688 24 37L24 15.414063L17.707031 21.707031C17.316406 22.097656 16.683594 22.097656 16.292969 21.707031C15.902344 21.316406 15.902344 20.683594 16.292969 20.292969L24.292969 12.292969C24.386719 12.199219 24.496094 12.128906 24.617188 12.078125C24.863281 11.976563 25.136719 11.976563 25.382813 12.078125C25.503906 12.128906 25.613281 12.199219 25.707031 12.292969L33.707031 20.292969C34.097656 20.683594 34.097656 21.316406 33.707031 21.707031Z" fill="#023235" />
</svg>