<svg xmlns="http://www.w3.org/2000/svg" xmlns:xlink="http://www.w3.org/1999/xlink" viewBox="0 0 50 50" fill="#023235">
  <path d="M25.058594 2.171875C12.375 2.171875 2.058594 12.488281 2.058594 25.171875C2.058594 37.855469 12.375 48.171875 25.058594 48.171875C37.738281 48.171875 48.058594 37.855469 48.058594 25.171875C48.058594 12.488281 37.738281 2.171875 25.058594 2.171875 Z M 33.707031 29.707031L25.707031 37.707031C25.617188 37.800781 25.503906 37.871094 25.382813 37.921875C25.261719 37.972656 25.128906 38 25 38C24.871094 38 24.738281 37.972656 24.617188 37.921875C24.496094 37.871094 24.386719 37.800781 24.292969 37.707031L16.292969 29.707031C15.902344 29.316406 15.902344 28.683594 16.292969 28.292969C16.683594 27.902344 17.316406 27.902344 17.707031 28.292969L24 34.585938L24 13C24 12.449219 24.449219 12 25 12C25.550781 12 26 12.449219 26 13L26 34.585938L32.292969 28.292969C32.683594 27.902344 33.316406 27.902344 33.707031 28.292969C34.097656 28.683594 34.097656 29.316406 33.707031 29.707031Z" fill="#023235" />
</svg>